<?xml version="1.0" standalone="no"?>
<!DOCTYPE svg PUBLIC "-//W3C//DTD SVG 20010904//EN"
 "http://www.w3.org/TR/2001/REC-SVG-20010904/DTD/svg10.dtd">
<svg version="1.0" xmlns="http://www.w3.org/2000/svg"
 width="376.000000pt" height="376.000000pt" viewBox="0 0 376.000000 376.000000"
 preserveAspectRatio="xMidYMid meet">
<metadata>
Created by potrace 1.11, written by Peter Selinger 2001-2013
</metadata>
<g transform="translate(0.000000,376.000000) scale(0.100000,-0.100000)"
fill="#000000" stroke="none">
<path d="M2117 2668 c-40 -55 -63 -101 -76 -149 -16 -59 -44 -70 -161 -62
-145 9 -157 8 -194 -23 -18 -16 -44 -47 -57 -69 -12 -22 -38 -53 -58 -70 -19
-16 -49 -43 -66 -59 -16 -15 -52 -47 -78 -70 -61 -51 -178 -224 -179 -263 l-1
-29 -81 1 c-45 1 -92 -2 -106 -5 -15 -4 -43 0 -70 10 -33 13 -69 17 -135 16
-76 -2 -98 1 -142 21 -43 20 -68 24 -156 24 -110 1 -156 -12 -177 -50 -9 -17
-34 -102 -45 -154 -2 -10 -14 -52 -25 -95 -12 -42 -24 -88 -26 -101 -3 -14 -7
-28 -10 -33 -3 -4 -47 -8 -99 -8 -174 0 -175 -1 -175 -234 0 -128 4 -186 12
-194 9 -9 82 -12 267 -12 223 0 257 2 273 17 15 13 24 14 53 6 41 -13 208 -15
239 -4 13 5 29 3 42 -5 17 -12 161 -14 870 -10 467 2 894 4 949 4 55 1 123 6
150 12 28 6 130 12 227 12 153 1 180 -1 196 -15 15 -14 41 -17 147 -17 l128 0
28 30 c16 16 29 33 30 37 1 15 7 38 34 138 14 55 33 129 42 165 17 74 21 80
52 83 21 1 21 4 21 174 0 127 -3 174 -12 180 -7 4 -96 8 -198 8 -163 0 -190 3
-225 20 -34 17 -61 20 -185 20 -80 0 -165 -4 -189 -9 l-44 -9 8 39 c7 37 10
59 20 144 22 190 -22 375 -112 462 -26 25 -69 48 -133 73 -52 20 -121 48 -153
61 -54 22 -72 24 -227 24 l-169 0 -24 -32z"/>
</g>
</svg>
